<svg xmlns="http://www.w3.org/2000/svg" viewBox="0 0 38.095 50">
  <defs>
    <style>
      .cls-1 {
        fill: #efefef;
      }
    </style>
  </defs>
  <path id="secure" class="cls-1" d="M37.333,17.667H34.952V12.9a11.9,11.9,0,1,0-23.81,0v4.762H8.762A4.776,4.776,0,0,0,4,22.429v23.81A4.776,4.776,0,0,0,8.762,51H37.333A4.776,4.776,0,0,0,42.1,46.238V22.429A4.776,4.776,0,0,0,37.333,17.667ZM23.048,39.1a4.762,4.762,0,1,1,4.762-4.762A4.776,4.776,0,0,1,23.048,39.1Zm7.381-21.429H15.667V12.9a7.381,7.381,0,0,1,14.762,0Z" transform="translate(-4 -1)"/>
</svg>
