<svg xmlns="http://www.w3.org/2000/svg" viewBox="0 0 50 50">
  <defs>
    <style>
      .cls-1 {
        fill: #efefef;
      }
    </style>
  </defs>
  <g id="shipping" transform="translate(-668 -210)">
    <path id="Path_6" data-name="Path 6" class="cls-1" d="M7.333,7.333A24.3,24.3,0,0,1,25,0,24.3,24.3,0,0,1,42.667,7.333,23.659,23.659,0,0,1,50,25a24.3,24.3,0,0,1-7.333,17.667A24.027,24.027,0,0,1,25,50,24.027,24.027,0,0,1,7.333,42.667,24.573,24.573,0,0,1,0,25,24.3,24.3,0,0,1,7.333,7.333ZM5.667,30h8.5c-.167-2-.333-3.667-.333-5s.167-3.167.333-5h-8.5A17.2,17.2,0,0,0,5,25,18.8,18.8,0,0,0,5.667,30Zm9.5-15A37.267,37.267,0,0,1,18.5,6.167,18.937,18.937,0,0,0,7.667,15Zm-7.5,20A18.937,18.937,0,0,0,18.5,43.833,31.248,31.248,0,0,1,15.167,35Zm23.167-5a31.428,31.428,0,0,0,.5-5,29.721,29.721,0,0,0-.5-5H19.167c-.167,2-.333,3.667-.333,5s.167,3.167.333,5ZM25,5a30.562,30.562,0,0,0-4.667,10h9.5A42.665,42.665,0,0,0,25,5Zm0,39.833a34.761,34.761,0,0,0,4.833-10h-9.5A30.562,30.562,0,0,0,25,44.833ZM42.333,15A18.937,18.937,0,0,0,31.5,6.167,31.248,31.248,0,0,1,34.833,15ZM31.5,43.833A18.937,18.937,0,0,0,42.333,35H35A37.569,37.569,0,0,1,31.5,43.833ZM35.833,30h8.5a19.083,19.083,0,0,0,0-10h-8.5c.167,2,.333,3.667.333,5A28.787,28.787,0,0,1,35.833,30Z" transform="translate(668 210)"/>
  </g>
</svg>
