<svg xmlns="http://www.w3.org/2000/svg" viewBox="0 0 45 45">
  <defs>
    <style>
      .cls-1 {
        fill: #efefef;
      }
    </style>
  </defs>
  <path id="support" class="cls-1" d="M45.5,34.25a28.4,28.4,0,0,1-8.925-1.425,2.551,2.551,0,0,0-2.55.6l-5.5,5.5A37.686,37.686,0,0,1,12.05,22.475l5.5-5.525a2.454,2.454,0,0,0,.625-2.525A28.4,28.4,0,0,1,16.75,5.5,2.507,2.507,0,0,0,14.25,3H5.5A2.507,2.507,0,0,0,3,5.5,42.5,42.5,0,0,0,45.5,48,2.507,2.507,0,0,0,48,45.5V36.75A2.507,2.507,0,0,0,45.5,34.25ZM25.5,3V28L33,20.5H48V3Z" transform="translate(-3 -3)"/>
</svg>
